<svg id="Flat" height="512" viewBox="0 0 512 512" width="512" xmlns="http://www.w3.org/2000/svg"><path d="m335.578 137.228a55.988 55.988 0 0 0 -111.156 0 24 24 0 0 0 7.578 46.772c2.659 0 32.121 16 48 16s45.341-16 48-16a24 24 0 0 0 7.578-46.772z" fill="#ed8989"/><path d="m280 424-72-240h144z" fill="#a36f58"/><path d="m216 296h272v128h-272z" fill="#ed6f6d"/><path d="m216 336h272v48h-272z" fill="#eb423f"/><circle cx="424" cy="240" fill="#c7312e" r="24"/><path d="m424 240a8 8 0 0 1 -8-7.978 43.454 43.454 0 0 0 -2.609-13.525c-3.647-9.409-9.391-10.497-13.391-10.497a8 8 0 0 1 0-16c13.248 0 23.366 7.525 28.49 21.191a59.627 59.627 0 0 1 3.51 18.809 8 8 0 0 1 -8 8z" fill="#2e9163"/><path d="m456 264h-240v32h240v128h32v-128-32z" fill="#ffc9c9"/><path d="m304 152a8 8 0 0 1 -8-8 16.019 16.019 0 0 0 -16-16 8 8 0 0 1 0-16 32.036 32.036 0 0 1 32 32 8 8 0 0 1 -8 8z" fill="#ffc9c9"/><path d="m240 208h-24.8l4.8 16h20a8 8 0 0 0 0-16z" fill="#5e3d30"/><path d="m344.8 208h-64.8v.007a8 8 0 0 0 -7.49 5.184l-24 64a8 8 0 1 0 14.98 5.618l22.053-58.809h15.357l-4.49 13.47a8 8 0 1 0 15.18 5.06l6.177-18.53h22.233z" fill="#5e3d30"/><path d="m40 344v16l12.97 51.881a16 16 0 0 0 15.522 12.119h199.016a16 16 0 0 0 15.522-12.119l12.97-51.881v-16z" fill="#a36f58"/><path d="m296 307.314c10.225 10.986 16 23.463 16 36.686v8c0 8.837-10.745 16-24 16s-24-7.163-24-16c0 8.837-10.745 16-24 16s-24-7.163-24-16c0 8.837-10.745 16-24 16s-24-7.163-24-16c0 8.837-10.745 16-24 16s-24-7.163-24-16c0 8.837-10.745 16-24 16s-24-7.163-24-16c0 8.837-10.745 16-24 16s-24-7.163-24-16v-8c0-13.223 5.775-25.7 16-36.686v-3.314c0-48.6 88-64 128-64s128 15.4 128 64z" fill="#ffb632"/><g fill="#eba72e"><path d="m120 288a8 8 0 0 1 -2.529-15.592l24-8a8 8 0 1 1 5.06 15.18l-24 8a8.019 8.019 0 0 1 -2.531.412z"/><path d="m168 312a8 8 0 0 1 -8-8v-16a8 8 0 0 1 16 0v16a8 8 0 0 1 -8 8z"/><path d="m216 288a8.015 8.015 0 0 1 -2.531-.412l-24-8a8 8 0 0 1 5.06-15.18l24 8a8 8 0 0 1 -2.529 15.592z"/></g></svg>